<mxfile host="app.diagrams.net" modified="2024-05-29T14:25:08.392Z" agent="Mozilla/5.0 (Macintosh; Intel Mac OS X 10_15_7) AppleWebKit/605.1.15 (KHTML, like Gecko) Version/17.5 Safari/605.1.15" version="24.4.9" etag="BL9A0HoHdQ1DaE_FHONg" type="github">
  <diagram name="Pagina-1" id="Kdx6LkfQ9gAR5vzQSLro">
    <mxGraphModel>
      <root>
        <mxCell id="0" />
        <mxCell id="1" parent="0" />
      </root>
    </mxGraphModel>
  </diagram>
</mxfile>
